<svg width="225" height="70" viewBox="0 0 225 70" fill="none" xmlns="http://www.w3.org/2000/svg">
<path fill-rule="evenodd" clip-rule="evenodd" d="M32.4873 21.2449C7.08584 19.6061 1.97494 40.7412 1.97494 40.7412C-3.44419 54.9964 15.16 59.6888 15.16 59.6888L16.2437 68.9078L25.093 68.3595L25.6284 61.4994L28.3319 61.6778L27.4394 69.0861L35.56 69.8002L37.1794 61.4994L39.7042 61.6778L39.1688 69.8002H45.6716L45.8503 67.2755L46.3858 61.6778C64.0836 62.7618 61.7382 43.2655 61.7382 43.2655C57.5811 24.1267 41.6216 21.8337 32.4873 21.2449ZM20.2245 48.6357C18.7022 48.6357 17.2141 48.1843 15.9484 47.3386C14.6827 46.4929 13.6962 45.2908 13.1137 43.8845C12.5311 42.4781 12.3787 40.9306 12.6758 39.4376C12.9728 37.9446 13.7058 36.5733 14.7823 35.4969C15.8587 34.4205 17.2301 33.6876 18.7232 33.3906C20.2162 33.0937 21.7637 33.2462 23.1701 33.8287C24.5765 34.4113 25.7785 35.3979 26.6242 36.6636C27.4699 37.9293 27.9212 39.4174 27.9211 40.9396C27.9193 42.9802 27.1078 44.9368 25.6648 46.3797C24.2218 47.8226 22.2652 48.634 20.2245 48.6357V48.6357ZM43.3079 52.4838C41.4056 52.4826 39.5464 51.9176 37.9652 50.86C36.384 49.8025 35.1518 48.2999 34.4244 46.5423C33.697 44.7846 33.5069 42.8508 33.8783 40.9852C34.2497 39.1196 35.1659 37.4059 36.511 36.0609C37.8561 34.7158 39.5698 33.7997 41.4354 33.4283C43.3011 33.0569 45.235 33.2469 46.9927 33.9743C48.7503 34.7017 50.2529 35.9339 51.3105 37.515C52.3681 39.0962 52.9331 40.9554 52.9343 42.8576C52.9354 44.122 52.6872 45.3743 52.2038 46.5427C51.7204 47.7111 51.0113 48.7727 50.1172 49.6668C49.2231 50.5609 48.1615 51.2699 46.993 51.7533C45.8246 52.2366 44.5723 52.4849 43.3079 52.4838V52.4838ZM49.0176 21.274L57.4852 24.7986L70.2512 13.2239L58.822 14.4271L56.7724 2.64703L46.9676 9.49361L39.7683 0.534424L40.5496 17.7491L49.0176 21.274Z" fill="white"/>
<path d="M96.6486 40.1729C96.6486 36.4222 94.486 33.246 88.1335 33.246C81.781 33.246 79.6185 36.4222 79.6185 40.1729V49.499C79.6185 53.2497 81.781 56.4259 88.1335 56.4259C94.486 56.4259 96.6486 53.2497 96.6486 49.499V40.1729ZM83.876 40.4095C83.876 38.2807 84.9573 36.9967 88.1335 36.9967C91.3098 36.9967 92.3911 38.2807 92.3911 40.4095V49.2624C92.3911 51.3912 91.3098 52.6752 88.1335 52.6752C84.9573 52.6752 83.876 51.3912 83.876 49.2624V40.4095ZM100.873 39.6323V51.5602C100.873 54.4999 101.853 56.4259 104.59 56.4259C106.516 56.4259 109.118 55.7163 111.179 54.7026L111.585 56.088H114.727V39.6323H110.605V51.0533C109.118 51.8305 107.327 52.4387 106.313 52.4387C105.367 52.4387 104.996 51.9994 104.996 51.1209V39.6323H100.873ZM127.734 52.6414C127.024 52.8442 126.281 52.9793 125.672 52.9793C124.591 52.9793 124.186 52.4049 124.186 51.5264V42.9099H128.139L128.409 39.6323H124.186V34.9693L120.063 35.5437V39.6323H117.597V42.9099H120.063V52.067C120.063 55.0067 121.584 56.4259 124.591 56.4259C125.639 56.4259 127.328 56.1556 128.207 55.7839L127.734 52.6414ZM145.422 45.0049C145.422 41.2542 143.664 39.2944 140.353 39.2944C138.292 39.2944 136.602 39.9702 135.149 41.0177L134.744 39.6323H131.466V63.3191L135.589 62.7446V55.9529C136.873 56.2232 138.528 56.4259 139.981 56.4259C143.8 56.4259 145.422 54.2634 145.422 50.614V45.0049ZM135.589 44.2953C136.467 43.4844 137.92 42.8086 139.272 42.8086C140.792 42.8086 141.299 43.5519 141.299 44.9035V50.7154C141.299 52.2022 140.725 52.9118 139.238 52.9118C138.055 52.9118 136.67 52.709 135.589 52.4725V44.2953ZM153.606 56.088V32.3337L149.483 32.9081V56.088H153.606ZM170.525 45.2414C170.525 41.1191 169.004 39.2944 163.834 39.2944C162.01 39.2944 159.746 39.5985 158.191 40.0716L158.698 43.214C160.151 42.9099 161.773 42.7072 163.26 42.7072C165.896 42.7072 166.402 43.3492 166.402 45.1739V46.8971H162.449C159.104 46.8971 157.651 48.1812 157.651 51.5264C157.651 54.3647 158.935 56.4259 161.942 56.4259C163.598 56.4259 165.355 55.9529 166.842 54.9729L167.146 56.088H170.525V45.2414ZM166.402 52.3035C165.625 52.7428 164.51 53.1483 163.294 53.1483C162.01 53.1483 161.638 52.6414 161.638 51.4926C161.638 50.2423 162.01 49.8707 163.361 49.8707H166.402V52.3035ZM188.711 39.6323H184.487L180.703 52.1346L176.952 39.6323H172.728L177.932 56.088H179.385L177.324 62.7446H181.243L183.44 56.088L188.711 39.6323ZM194.275 50.2761V49.4314H203.432V45.9172C203.432 42.3693 202.249 39.2944 196.978 39.2944C191.707 39.2944 190.152 42.2341 190.152 45.7145V50.0734C190.152 54.0268 191.943 56.4259 197.113 56.4259C199.073 56.4259 201.303 56.088 203.161 55.3784L202.519 52.2697C200.729 52.8104 199.073 53.0469 197.485 53.0469C194.984 53.0469 194.275 52.2697 194.275 50.2761ZM194.275 45.309C194.275 43.7547 194.984 42.6734 197.012 42.6734C199.039 42.6734 199.512 43.7547 199.512 45.309V46.12H194.275V45.309ZM206.488 50.7154C206.488 54.4661 208.245 56.4259 211.556 56.4259C213.618 56.4259 215.307 55.7501 216.76 54.7026L217.166 56.088H220.443V32.3337L216.321 32.9081V39.7675C215.037 39.4971 213.381 39.2944 211.928 39.2944C208.11 39.2944 206.488 41.457 206.488 45.1063V50.7154ZM216.321 51.425C215.442 52.236 213.989 52.9118 212.638 52.9118C211.117 52.9118 210.61 52.1684 210.61 50.8168V45.0049C210.61 43.5181 211.185 42.8086 212.671 42.8086C213.854 42.8086 215.24 43.0113 216.321 43.2478V51.425Z" fill="#F4F2FF"/>
</svg>
